<?xml version="1.0" encoding="utf-8"?>
<svg version="1.1" xmlns:xlink="http://www.w3.org/1999/xlink" width="32px" height="29px" xmlns="http://www.w3.org/2000/svg">
  <g transform="matrix(1 0 0 1 -10 -10 )">
    <path d="M 32 10.3422289426523  C 32 10.3297558243728  31.9938064516129 10.3193615591398  31.9932903225806 10.3074081541219  C 31.9921935483871 10.286164874552  31.9897419354839 10.2649865591398  31.986064516129 10.2440031362007  C 31.9814193548387 10.2219153225806  31.9752258064516 10.2002172939068  31.9674838709677 10.1790389784946  C 31.9594838709677 10.1546124551971  31.9496774193548 10.130770609319  31.938064516129 10.1078382616487  C 31.9347096774194 10.0965344982079  31.9307741935484 10.0854256272401  31.9261935483871 10.0745766129032  C 31.9225806451613 10.0678203405018  31.9153548387097 10.0647020609319  31.9112258064516 10.0579457885305  C 31.8993548387097 10.0407302867384  31.8861935483871 10.0244242831541  31.872 10.0090927419355  C 31.8545161290322 9.98862903225806  31.8355483870968 9.96952956989247  31.8152258064516 9.95192428315412  C 31.7989032258064 9.93750224014337  31.7816774193548 9.92411962365591  31.7636129032258 9.91190636200717  C 31.7569032258064 9.90774865591398  31.7538064516129 9.9004726702509  31.7470967741935 9.89683467741935  L 26.3225806451613 6.61796370967742  L 26.3225806451613 3.06624327956989  C 26.3225806451613 2.77923163082437  26.0914838709677 2.54653001792115  25.8064516129032 2.54653001792115  L 19.5855483870968 2.54653001792115  L 16.2658064516129 0.541995967741936  C 16.1022580645161 0.443055555555555  15.8977419354839 0.443055555555555  15.7341935483871 0.541995967741936  L 12.4144516129032 2.54653001792115  L 6.19354838709677 2.54653001792115  C 5.90851612903226 2.54653001792115  5.67741935483871 2.77923163082437  5.67741935483871 3.06624327956989  L 5.67741935483871 6.61796370967742  L 0.250322580645161 9.89683467741935  C 0.243612903225806 9.9004726702509  0.240516129032258 9.90774865591398  0.233806451612903 9.91190636200717  C 0.216838709677419 9.92405465949821  0.200645161290323 9.93724238351254  0.185290322580645 9.95140456989247  C 0.149612903225806 9.9825873655914  0.117290322580645 10.0174081541219  0.0887741935483871 10.0553472222222  C 0.0846451612903226 10.0621034946237  0.0774193548387097 10.0652217741935  0.0738064516129032 10.071978046595  C 0.0691612903225806 10.0829569892473  0.0652258064516129 10.0942607526882  0.0619354838709677 10.1057594086022  C 0.0505161290322581 10.1284318996416  0.0407096774193548 10.1518839605735  0.0325161290322581 10.1759206989247  C 0.0247741935483871 10.19729390681  0.0185806451612903 10.2191218637993  0.0139354838709677 10.2414045698925  C 0.010258064516129 10.2623879928315  0.00780645161290323 10.2835663082437  0.00670967741935484 10.3048095878136  C 0.00670967741935484 10.3167629928315  0 10.3271572580645  0 10.3396303763441  L 0 26.9730533154122  C 0 27.8341532258065  0.693225806451613 28.5321931003584  1.54838709677419 28  L 30.4516129032258 28  C 31.3067741935484 28.5321931003584  32 27.8341532258065  32 26.9730533154122  L 32 10.3422289426523  Z M 26.3225806451613 12.8545228494624  L 26.3225806451613 7.82993503584229  L 30.4805161290323 10.3422289426523  L 26.3225806451613 12.8545228494624  Z M 14.4216774193548 2.54653001792115  L 16 1.59337589605735  L 17.5783225806452 2.54653001792115  L 14.4216774193548 2.54653001792115  Z M 6.70967741935484 13.4781787634409  L 6.70967741935484 4  L 25.2903225806452 4  L 25.2903225806452 13.4781787634409  L 22.4516129032258 15.1932325268817  L 16.2658064516129 11.4559744623656  C 16.1022580645161 11.3570340501792  15.8977419354839 11.3570340501792  15.7341935483871 11.4559744623656  L 9.54838709677419 15.1932325268817  L 6.70967741935484 13.4781787634409  Z M 1.51948387096774 10.3422289426523  L 5.67741935483871 7.82993503584229  L 5.67741935483871 12.8545228494624  L 1.51948387096774 10.3422289426523  Z M 1.03225806451613 20.3383938172043  L 1.03225806451613 11.260042562724  L 8.54503225806451 15.7992181899642  L 1.03225806451613 20.3383938172043  Z M 30.9677419354839 21.5503651433692  L 30.9677419354839 26.9730533154122  C 30.9677419354839 27.2600649641577  30.7366451612903 27.4927665770609  30.4516129032258 27  L 1.54838709677419 27  C 1.26335483870968 27.4927665770609  1.03225806451613 27.2600649641577  1.03225806451613 26.9730533154122  L 1.03225806451613 21.5503651433692  L 16 12.507354390681  L 30.9677419354839 21.5503651433692  Z M 30.9677419354839 11.260042562724  L 30.9677419354839 20.3383938172043  L 23.4549677419355 15.7992181899642  L 30.9677419354839 11.260042562724  Z " fill-rule="nonzero" fill="#ffffff" stroke="none" transform="matrix(1 0 0 1 10 10 )" />
  </g>
</svg>