<?xml version="1.0" encoding="utf-8"?>
<svg version="1.1" xmlns:xlink="http://www.w3.org/1999/xlink" width="29px" height="29px" xmlns="http://www.w3.org/2000/svg">
  <g transform="matrix(1 0 0 1 -12 -79 )">
    <path d="M 17.615234375 16.8698320413437  C 18.1061197916667 16.2641042204996  18.4333767361111 15.9612403100775  18.5970052083333 15.9612403100775  C 18.7606336805556 15.9612403100775  19.3742404513889 16.2360034453058  20.4378255208333 16.7855297157623  C 21.5014105902778 17.3350559862188  22.0646701388889 17.6660206718346  22.1276041666667 17.7784237726098  C 22.1527777777778 17.8408699397071  22.1653645833333 17.9345391903531  22.1653645833333 18.0594315245478  C 22.1653645833333 18.4715762273902  22.0583767361111 18.9461670973299  21.8444010416667 19.4832041343669  C 21.6430121527778 19.9702842377261  21.1961805555556 20.3793066322136  20.50390625 20.7102713178295  C 19.8116319444444 21.0412360034453  19.1697048611111 21.2067183462532  18.578125 21.2067183462532  C 17.8606770833333 21.2067183462532  16.6649305555556 20.8195521102498  14.9908854166667 20.0452196382429  C 13.7573784722222 19.4832041343669  12.6875 18.7463393626184  11.78125 17.8346253229974  C 10.875 16.9229112833764  9.94357638888889 15.7676571920758  8.98697916666667 14.3688630490956  C 8.08072916666667 13.0325150732127  7.63389756944445 11.8210594315245  7.646484375 10.734496124031  L 7.646484375 10.5846253229974  C 7.68424479166667 9.44810508182601  8.14995659722222 8.4614556416882  9.04361979166667 7.62467700258398  C 9.345703125 7.34991386735573  9.67296006944445 7.2125322997416  10.025390625 7.2125322997416  C 10.1009114583333 7.2125322997416  10.2141927083333 7.2218992248062  10.365234375 7.2406330749354  C 10.5162760416667 7.2593669250646  10.6358506944444 7.2687338501292  10.7239583333333 7.2687338501292  C 10.9631076388889 7.2687338501292  11.1298828125 7.30932385874246  11.2242838541667 7.39050387596899  C 11.3186848958333 7.47168389319552  11.4162326388889 7.64341085271318  11.5169270833333 7.90568475452196  C 11.6176215277778 8.15546942291128  11.8253038194444 8.70499569336778  12.1399739583333 9.55426356589147  C 12.4546440972222 10.4035314384152  12.6119791666667 10.8718776916451  12.6119791666667 10.9593023255814  C 12.6119791666667 11.2215762273902  12.3948567708333 11.5806416881998  11.9606119791667 12.0364987080103  C 11.5263671875 12.4923557278208  11.3092447916667 12.7827304048234  11.3092447916667 12.9076227390181  C 11.3092447916667 12.9950473729543  11.3407118055556 13.0887166236003  11.4036458333333 13.1886304909561  C 11.8315972222222 14.1003445305771  12.4735243055556 14.9558570198105  13.3294270833333 15.7551679586563  C 14.0342881944444 16.417097329888  14.9845920138889 17.0478036175711  16.1803385416667 17.6472868217054  C 16.3313802083333 17.7347114556417  16.4698350694444 17.7784237726098  16.595703125 17.7784237726098  C 16.7845052083333 17.7784237726098  17.1243489583333 17.4755598621878  17.615234375 16.8698320413437  Z M 8.25065104166667 23.9418604651163  C 10.2393663194444 25.2407407407407  12.4105902777778 25.890180878553  14.7643229166667 25.890180878553  C 16.3628472222222 25.890180878553  17.8952907986111 25.5779500430663  19.3616536458333 24.953488372093  C 20.8280164930556 24.3290267011197  22.08984375 23.4922480620155  23.1471354166667 22.4431524547804  C 24.2044270833333 21.3940568475452  25.0477430555556 20.1420111972438  25.6770833333333 18.687015503876  C 26.3064236111111 17.2320198105082  26.62109375 15.7114556416882  26.62109375 14.125322997416  C 26.62109375 12.5391903531438  26.3064236111111 11.0186261843239  25.6770833333333 9.56363049095607  C 25.0477430555556 8.10863479758829  24.2044270833333 6.85658914728682  23.1471354166667 5.80749354005168  C 22.08984375 4.75839793281654  20.8280164930556 3.92161929371232  19.3616536458333 3.29715762273902  C 17.8952907986111 2.67269595176572  16.3628472222222 2.36046511627907  14.7643229166667 2.36046511627907  C 13.1657986111111 2.36046511627907  11.6333550347222 2.67269595176572  10.1669921875 3.29715762273902  C 8.70062934027778 3.92161929371232  7.43880208333333 4.75839793281654  6.38151041666667 5.80749354005168  C 5.32421875 6.85658914728682  4.48090277777778 8.10863479758829  3.8515625 9.56363049095607  C 3.22222222222222 11.0186261843239  2.90755208333333 12.5391903531438  2.90755208333333 14.125322997416  C 2.90755208333333 16.6606373815676  3.66276041666667 18.9586563307494  5.17317708333333 21.0193798449612  L 3.681640625 25.3843669250646  L 8.25065104166667 23.9418604651163  Z M 9.24186197916667 1.12403100775194  C 10.9977213541667 0.374677002583978  12.8385416666667 0  14.7643229166667 0  C 16.6901041666667 0  18.5309244791667 0.374677002583978  20.2867838541667 1.12403100775194  C 22.0426432291667 1.8733850129199  23.5562065972222 2.87876830318691  24.8274739583333 4.14018087855297  C 26.0987413194444 5.40159345391903  27.1119791666667 6.90342377260982  27.8671875 8.64567183462532  C 28.6223958333333 10.3879198966408  29 12.2144702842377  29 14.125322997416  C 29 16.0361757105943  28.6223958333333 17.8627260981912  27.8671875 19.6049741602067  C 27.1119791666667 21.3472222222222  26.0987413194444 22.849052540913  24.8274739583333 24.1104651162791  C 23.5562065972222 25.3718776916451  22.0426432291667 26.3772609819121  20.2867838541667 27.1266149870801  C 18.5309244791667 27.8759689922481  16.6901041666667 28.250645994832  14.7643229166667 28.250645994832  C 12.3098958333333 28.250645994832  10.0128038194444 27.6636520241171  7.873046875 26.4896640826873  L 0 29  L 2.56770833333333 21.4127906976744  C 1.20833333333333 19.1897071490095  0.528645833333333 16.7605512489233  0.528645833333333 14.125322997416  C 0.528645833333333 12.2144702842377  0.90625 10.3879198966408  1.66145833333333 8.64567183462532  C 2.41666666666667 6.90342377260982  3.42990451388889 5.40159345391903  4.701171875 4.14018087855297  C 5.97243923611111 2.87876830318691  7.48600260416667 1.8733850129199  9.24186197916667 1.12403100775194  Z " fill-rule="nonzero" fill="#ffffff" stroke="none" transform="matrix(1 0 0 1 12 79 )" />
  </g>
</svg>